<svg width="100" height="100" viewBox="0 0 100 100" fill="none" xmlns="http://www.w3.org/2000/svg">
<g clip-path="url(#clip0_2:2)">
<rect width="100" height="100" fill="white"/>
<path d="M68.1055 30.6387C68.1055 30.6855 68.0859 30.7539 68.0469 30.8438C68.0117 30.9297 67.9648 31.0215 67.9062 31.1191C67.8516 31.2129 67.793 31.3066 67.7305 31.4004C67.6719 31.4941 67.6191 31.5723 67.5723 31.6348C67.416 31.8379 67.2344 32.0352 67.0273 32.2266C66.8242 32.4141 66.6113 32.582 66.3887 32.7305C66.166 32.8789 65.9395 32.998 65.709 33.0879C65.4824 33.1777 65.2656 33.2227 65.0586 33.2227C64.7422 33.2227 64.4688 33.1602 64.2383 33.0352C64.0117 32.9102 63.8242 32.7285 63.6758 32.4902C63.5312 32.248 63.4238 31.9512 63.3535 31.5996C63.2832 31.2441 63.248 30.8398 63.248 30.3867C63.248 30.1055 63.2598 29.7988 63.2832 29.4668C63.3066 29.1309 63.3398 28.7852 63.3828 28.4297C63.4258 28.0703 63.4766 27.709 63.5352 27.3457C63.5938 26.9824 63.6582 26.6328 63.7285 26.2969C63.7988 25.9609 63.873 25.6484 63.9512 25.3594C64.0293 25.0664 64.1094 24.8125 64.1914 24.5977C64.2773 24.3789 64.3613 24.207 64.4434 24.082C64.5293 23.957 64.6113 23.8945 64.6895 23.8945C64.7832 23.8945 64.8633 23.9355 64.9297 24.0176C65 24.0957 65.0566 24.1797 65.0996 24.2695C65.0566 24.6445 64.9746 25.1035 64.8535 25.6465C64.7363 26.1895 64.5957 26.8301 64.4316 27.5684C64.3848 27.7754 64.3438 27.9902 64.3086 28.2129C64.2773 28.4316 64.25 28.6523 64.2266 28.875C64.207 29.0977 64.1914 29.3184 64.1797 29.5371C64.168 29.752 64.1621 29.9551 64.1621 30.1465C64.1621 30.8301 64.25 31.3555 64.4258 31.7227C64.6055 32.0859 64.9062 32.2676 65.3281 32.2676C65.5273 32.2676 65.7246 32.2305 65.9199 32.1562C66.1152 32.0781 66.3008 31.9805 66.4766 31.8633C66.6562 31.7422 66.8262 31.6113 66.9863 31.4707C67.1465 31.3262 67.2949 31.1855 67.4316 31.0488C67.4746 31.0059 67.5254 30.9512 67.584 30.8848C67.6465 30.8184 67.7051 30.7559 67.7598 30.6973C67.8184 30.6348 67.8711 30.582 67.918 30.5391C67.9648 30.4922 67.9961 30.4688 68.0117 30.4688C68.0742 30.4688 68.1055 30.5254 68.1055 30.6387Z" fill="#7000FF"/>
<path d="M22.6133 94.3027C22.6133 94.4629 22.5254 94.6211 22.3496 94.7773C22.1816 94.9336 22.0137 95.0117 21.8457 95.0117C21.6621 95.0117 21.2031 94.7031 20.4688 94.0859C20.25 93.8984 20.0312 93.6855 19.8125 93.4473C19.5977 93.2051 19.3555 92.918 19.0859 92.5859C19.043 92.5312 18.9902 92.4668 18.9277 92.3926C18.8652 92.3184 18.791 92.2344 18.7051 92.1406C18.541 91.9492 18.3965 91.7832 18.2715 91.6426C18.1504 91.498 18.0391 91.3496 17.9375 91.1973C17.75 91.3418 17.5508 91.5117 17.3398 91.707C17.1289 91.8984 16.9297 92.0996 16.7422 92.3105C16.3633 92.7207 16.0098 93.1328 15.6816 93.5469C15.627 93.6133 15.5625 93.6934 15.4883 93.7871C15.4141 93.8809 15.3281 93.9883 15.2305 94.1094C15.1328 94.2305 15.043 94.3457 14.9609 94.4551C14.8828 94.5605 14.8105 94.6621 14.7441 94.7598C14.7246 94.791 14.6992 94.834 14.668 94.8887C14.6367 94.9434 14.6035 94.998 14.5684 95.0527C14.5332 95.1074 14.4961 95.1543 14.457 95.1934C14.4219 95.2324 14.3926 95.248 14.3691 95.2402C14.2754 95.2402 14.1895 95.1602 14.1113 95C14.0371 94.8477 14 94.6562 14 94.4258C14 94.1367 14.1465 93.8008 14.4395 93.418C14.7363 93.0391 15.1094 92.6367 15.5586 92.2109C15.7852 91.9961 15.998 91.793 16.1973 91.6016C16.4004 91.4102 16.5938 91.2266 16.7773 91.0508C17.1406 90.707 17.3223 90.4785 17.3223 90.3652C17.3223 90.2754 17.1191 89.8652 16.7129 89.1348C16.5098 88.7676 16.3398 88.4609 16.2031 88.2148C16.0664 87.9648 15.9609 87.7715 15.8867 87.6348C15.7422 87.3613 15.6699 87.1484 15.6699 86.9961C15.6699 86.8398 15.7188 86.6562 15.8164 86.4453C15.918 86.2266 16.0293 86.1172 16.1504 86.1172C16.2832 86.1172 16.3945 86.2266 16.4844 86.4453C16.5156 86.5078 16.5488 86.584 16.584 86.6738C16.623 86.7598 16.668 86.8594 16.7188 86.9727C16.7695 87.0859 16.8164 87.1934 16.8594 87.2949C16.9023 87.3965 16.9453 87.4961 16.9883 87.5938C17.0625 87.7695 17.1406 87.9395 17.2227 88.1035C17.3086 88.2637 17.3965 88.4219 17.4863 88.5781C17.5801 88.7344 17.6855 88.9043 17.8027 89.0879C17.9238 89.2715 18.0566 89.4707 18.2012 89.6855C18.4199 89.4395 18.6465 89.2012 18.8809 88.9707L19.6719 88.1797C19.9609 87.8906 20.1621 87.6836 20.2754 87.5586C20.3301 87.5 20.3945 87.4277 20.4688 87.3418C20.5469 87.252 20.627 87.1543 20.709 87.0488C20.752 86.9941 20.7891 86.9453 20.8203 86.9023C20.8516 86.8594 20.8809 86.8223 20.9082 86.791C20.9355 86.7559 20.9688 86.7129 21.0078 86.6621C21.0508 86.6074 21.0996 86.5469 21.1543 86.4805C21.3184 86.2734 21.5488 86.1699 21.8457 86.1699C21.9277 86.1699 22 86.1895 22.0625 86.2285C22.125 86.2637 22.1777 86.3125 22.2207 86.375C22.2637 86.4336 22.2949 86.5039 22.3145 86.5859C22.3379 86.668 22.3496 86.752 22.3496 86.8379C22.3496 87.0801 22.1816 87.2012 21.8457 87.2012C21.7832 87.2012 21.7148 87.2324 21.6406 87.2949C21.5664 87.3574 21.4902 87.4355 21.4121 87.5293C21.3379 87.6191 21.2637 87.7148 21.1895 87.8164C21.1191 87.918 21.0586 88.0039 21.0078 88.0742C20.8594 88.2773 20.7109 88.4629 20.5625 88.6309C20.418 88.7949 20.2754 88.9453 20.1348 89.082C20.0762 89.1367 19.9902 89.2168 19.877 89.3223C19.7637 89.4277 19.6191 89.5586 19.4434 89.7148C19.2715 89.8711 19.1191 90.0137 18.9863 90.1426C18.8574 90.2715 18.748 90.3867 18.6582 90.4883C18.8379 90.7109 19.0156 90.9297 19.1914 91.1445C19.3672 91.3555 19.543 91.5625 19.7188 91.7656C19.8945 91.9688 20.0742 92.168 20.2578 92.3633C20.4414 92.5586 20.6328 92.752 20.832 92.9434C21.0312 93.1348 21.2207 93.3008 21.4004 93.4414C21.584 93.582 21.7617 93.7012 21.9336 93.7988C22.0195 93.8496 22.1133 93.8945 22.2148 93.9336C22.2695 93.9531 22.3145 93.9688 22.3496 93.9805C22.3848 93.9922 22.4062 94 22.4141 94.0039C22.5469 94.0508 22.6133 94.1504 22.6133 94.3027Z" fill="black"/>
<path d="M96.4375 71.1621C96.4375 71.1816 96.4336 71.2148 96.4258 71.2617C96.418 71.3086 96.4102 71.3516 96.4023 71.3906C96.3711 71.5586 96.2578 71.7734 96.0625 72.0352C95.8711 72.293 95.6152 72.6172 95.2949 73.0078C95.1934 73.1328 95.0703 73.2832 94.9258 73.459C94.7852 73.6348 94.6211 73.8398 94.4336 74.0742C94.3438 74.1875 94.2578 74.2988 94.1758 74.4082C94.0938 74.5137 94.0156 74.6172 93.9414 74.7188C93.8711 74.8203 93.7988 74.9258 93.7246 75.0352C93.6504 75.1445 93.5742 75.2617 93.4961 75.3867C93.4883 75.4062 93.457 75.459 93.4023 75.5449C93.3516 75.627 93.2812 75.7461 93.1914 75.9023C93.0156 76.1992 92.8652 76.4219 92.7402 76.5703C92.7324 76.707 92.7246 76.8496 92.7168 76.998C92.7129 77.1465 92.707 77.3027 92.6992 77.4668C92.6914 77.6309 92.6836 77.7832 92.6758 77.9238C92.6719 78.0605 92.666 78.1875 92.6582 78.3047C92.6465 78.5352 92.6348 78.7695 92.623 79.0078C92.6113 79.2422 92.5938 79.5469 92.5703 79.9219C92.5391 80.5273 92.5156 80.8672 92.5 80.9414C92.4805 81.0195 92.3906 81.1055 92.2305 81.1992C92.0742 81.2969 91.9512 81.3457 91.8613 81.3457C91.748 81.3457 91.6328 81.2754 91.5156 81.1348C91.4023 80.998 91.3457 80.873 91.3457 80.7598C91.3457 80.5332 91.3809 80.1562 91.4512 79.6289C91.5254 79.1055 91.5781 78.6914 91.6094 78.3867C91.6914 77.5898 91.7324 77.0566 91.7324 76.7871C91.7324 76.6113 91.6953 76.4512 91.6211 76.3066C91.4336 76.2051 91.2422 76.0664 91.0469 75.8906C90.8555 75.7148 90.6719 75.5273 90.4961 75.3281C90.4062 75.2266 90.3066 75.1133 90.1973 74.9883C90.0918 74.8594 89.9727 74.7148 89.8398 74.5547C89.7109 74.3945 89.6113 74.2734 89.541 74.1914C89.4746 74.1055 89.4375 74.0586 89.4297 74.0508C89.3828 73.9922 89.3203 73.9219 89.2422 73.8398C89.168 73.7578 89.0801 73.6641 88.9785 73.5586C88.877 73.4492 88.7871 73.3535 88.709 73.2715C88.6348 73.1895 88.5703 73.1211 88.5156 73.0664C88.4023 72.9531 88.3457 72.8574 88.3457 72.7793C88.3457 72.7051 88.4512 72.6113 88.6621 72.498C88.877 72.3809 89.0234 72.3223 89.1016 72.3223C89.1875 72.3223 89.2793 72.3535 89.377 72.416C89.4746 72.4785 89.582 72.5723 89.6992 72.6973C89.8203 72.8184 89.9551 72.9707 90.1035 73.1543C90.2559 73.3379 90.4297 73.5527 90.625 73.7988C90.8164 74.0449 90.9902 74.2617 91.1465 74.4492C91.3027 74.6328 91.4453 74.7871 91.5742 74.9121C91.7031 75.0332 91.8203 75.125 91.9258 75.1875C92.0352 75.2461 92.1387 75.2754 92.2363 75.2754C92.2402 75.2754 92.3047 75.207 92.4297 75.0703C92.4922 75.0039 92.5391 74.9512 92.5703 74.9121C92.6055 74.873 92.627 74.8496 92.6348 74.8418C92.7988 74.6426 92.9395 74.4707 93.0566 74.3262C93.1738 74.1816 93.2715 74.0605 93.3496 73.9629C93.4277 73.8613 93.5234 73.7383 93.6367 73.5938C93.75 73.4492 93.8809 73.2793 94.0293 73.084C94.1777 72.8848 94.3145 72.7051 94.4395 72.5449C94.5645 72.3809 94.6758 72.2324 94.7734 72.0996C94.875 71.9668 94.9766 71.8301 95.0781 71.6895C95.1797 71.5449 95.2852 71.3965 95.3945 71.2441C95.4883 71.0996 95.5684 70.9941 95.6348 70.9277C95.7051 70.8574 95.7969 70.8223 95.9102 70.8223C96.0352 70.8223 96.1543 70.8516 96.2676 70.9102C96.3809 70.9648 96.4375 71.0488 96.4375 71.1621Z" fill="black"/>
<path d="M48.8457 13.8613C48.8457 14.0059 48.8027 14.0898 48.7168 14.1133C48.6777 14.1211 48.5859 14.1367 48.4414 14.1602C48.3008 14.1836 48.1074 14.2129 47.8613 14.248C47.5605 14.3027 47.2812 14.3516 47.0234 14.3945C46.7656 14.4375 46.5098 14.4805 46.2559 14.5234C46.002 14.5664 45.7422 14.6113 45.4766 14.6582C45.2109 14.7012 44.9238 14.748 44.6152 14.7988C44.3184 14.8496 44.0371 14.8965 43.7715 14.9395C43.5098 14.9785 43.2598 15.0137 43.0215 15.0449C42.5488 15.1113 42.0762 15.168 41.6035 15.2148C41.1309 15.2578 40.6582 15.2871 40.1855 15.3027C40.0957 15.3574 39.9785 15.4395 39.834 15.5488C39.6934 15.6582 39.5625 15.7422 39.4414 15.8008C39.3242 15.8555 39.1914 15.8828 39.043 15.8828C38.9961 15.8828 38.9512 15.8613 38.9082 15.8184C38.8691 15.7754 38.834 15.7246 38.8027 15.666C38.7754 15.6074 38.752 15.5488 38.7324 15.4902C38.7168 15.4277 38.709 15.377 38.709 15.3379C38.709 15.291 38.7324 15.2324 38.7793 15.1621C38.8301 15.0918 38.8984 15.0117 38.9844 14.9219C39.0703 14.832 39.1738 14.7344 39.2949 14.6289C39.416 14.5195 39.5488 14.4062 39.6934 14.2891C39.9277 14.0977 40.1387 13.9316 40.3262 13.791C40.5176 13.6465 40.6934 13.5117 40.8535 13.3867C41.0176 13.2578 41.1738 13.1309 41.3223 13.0059C41.4746 12.877 41.6309 12.7305 41.791 12.5664C41.8574 12.4961 41.9473 12.3945 42.0605 12.2617C42.1738 12.1289 42.2988 11.9805 42.4355 11.8164C42.5723 11.6523 42.7129 11.4805 42.8574 11.3008C43.002 11.1172 43.1406 10.9434 43.2734 10.7793C43.4102 10.6113 43.5332 10.4609 43.6426 10.3281C43.7559 10.1914 43.8438 10.0859 43.9062 10.0117C44.1562 9.71484 44.4395 9.43945 44.7559 9.18555C44.709 9.07227 44.5137 9.01562 44.1699 9.01562C44.0371 9.01562 43.8457 9.02734 43.5957 9.05078C43.4316 9.0625 43.2539 9.08008 43.0625 9.10352C42.875 9.12695 42.6855 9.15039 42.4941 9.17383C42.3027 9.19336 42.1152 9.21289 41.9316 9.23242C41.748 9.24805 41.582 9.25586 41.4336 9.25586C41.0664 9.25586 40.7188 9.23828 40.3906 9.20312C40.0664 9.16406 39.7617 9.08984 39.4766 8.98047C39.4062 8.95703 39.3496 8.93359 39.3066 8.91016C39.2637 8.88672 39.2285 8.86133 39.2012 8.83398C39.1738 8.80664 39.1543 8.77539 39.1426 8.74023C39.1348 8.70117 39.1309 8.65234 39.1309 8.59375C39.1309 8.56641 39.1348 8.52148 39.1426 8.45898C39.1543 8.39648 39.168 8.33203 39.1836 8.26562C39.2031 8.19922 39.2207 8.13672 39.2363 8.07812C39.2559 8.01562 39.2754 7.97266 39.2949 7.94922C39.3535 7.86719 39.4805 7.82617 39.6758 7.82617C39.9961 7.95508 40.2871 8.05273 40.5488 8.11914C40.8145 8.18164 41.0723 8.21289 41.3223 8.21289C41.4551 8.21289 41.6035 8.20898 41.7676 8.20117C41.9316 8.19336 42.0996 8.18555 42.2715 8.17773C42.4473 8.16602 42.6191 8.1543 42.7871 8.14258C42.959 8.13086 43.1172 8.12109 43.2617 8.11328C43.4883 8.09766 43.668 8.08984 43.8008 8.08984C43.9336 8.08594 44.0586 8.08203 44.1758 8.07812C44.293 8.07031 44.4238 8.05859 44.5684 8.04297C44.7129 8.02734 44.9102 7.99805 45.1602 7.95508C45.4141 7.91211 45.6289 7.88086 45.8047 7.86133C45.9844 7.83789 46.127 7.82617 46.2324 7.82617C46.3027 7.82617 46.375 7.8418 46.4492 7.87305C46.5234 7.90039 46.5898 7.9375 46.6484 7.98438C46.7109 8.03125 46.7598 8.08594 46.7949 8.14844C46.834 8.21094 46.8535 8.27539 46.8535 8.3418C46.8535 8.40039 46.8301 8.45312 46.7832 8.5C46.709 8.57422 46.6445 8.63867 46.5898 8.69336C46.5352 8.74805 46.4805 8.80078 46.4258 8.85156C46.375 8.89844 46.3223 8.94922 46.2676 9.00391C46.2168 9.05469 46.1562 9.11523 46.0859 9.18555C45.6758 9.60352 45.2695 10.0391 44.8672 10.4922C44.4648 10.9414 44.0801 11.373 43.7129 11.7871C43.5293 11.9941 43.3418 12.207 43.1504 12.4258C42.959 12.6406 42.7656 12.8555 42.5703 13.0703C42.3789 13.2852 42.1855 13.4961 41.9902 13.7031C41.7988 13.9062 41.6133 14.0996 41.4336 14.2832C41.7188 14.2715 41.9961 14.25 42.2656 14.2188C42.5352 14.1836 42.8047 14.1445 43.0742 14.1016C43.3438 14.0586 43.6172 14.0117 43.8945 13.9609C44.1758 13.9062 44.4668 13.8535 44.7676 13.8027C46.1582 13.5645 47.4336 13.4453 48.5938 13.4453C48.7617 13.5156 48.8457 13.6543 48.8457 13.8613Z" fill="black"/>
<path d="M33.8536 9.64214C33.6583 9.44688 33.3417 9.44688 33.1465 9.64214L29.9645 12.8241C29.7692 13.0194 29.7692 13.336 29.9645 13.5312C30.1597 13.7265 30.4763 13.7265 30.6716 13.5312L33.5 10.7028L36.3284 13.5312C36.5237 13.7265 36.8403 13.7265 37.0355 13.5312C37.2308 13.336 37.2308 13.0194 37.0355 12.8241L33.8536 9.64214ZM34 68.0043V9.99569H33V68.0043H34Z" fill="black"/>
<path d="M92.3622 68.3536C92.5574 68.1583 92.5574 67.8417 92.3622 67.6464L89.1802 64.4645C88.9849 64.2692 88.6683 64.2692 88.4731 64.4645C88.2778 64.6597 88.2778 64.9763 88.4731 65.1716L91.3015 68L88.4731 70.8284C88.2778 71.0237 88.2778 71.3403 88.4731 71.5355C88.6683 71.7308 88.9849 71.7308 89.1802 71.5355L92.3622 68.3536ZM34 68.5H92.0086V67.5H34V68.5Z" fill="black"/>
<path d="M4.50329 90.9427C4.47164 91.217 4.66836 91.4651 4.94269 91.4967L9.41303 92.0125C9.68735 92.0442 9.93539 91.8474 9.96704 91.5731C9.9987 91.2988 9.80197 91.0508 9.52765 91.0191L5.55402 90.5606L6.01251 86.587C6.04416 86.3126 5.84744 86.0646 5.57312 86.033C5.2988 86.0013 5.05076 86.198 5.0191 86.4723L4.50329 90.9427ZM33.6893 67.6083L4.6893 90.6083L5.3107 91.3917L34.3107 68.3917L33.6893 67.6083Z" fill="black"/>
<path d="M59.5 27.5C59.5 27.6043 59.4415 27.7815 59.1554 28.0283C58.8726 28.2721 58.426 28.5305 57.8036 28.7902C56.563 29.3078 54.7374 29.7849 52.4443 30.1896C47.8663 30.9975 41.5217 31.5 34.5 31.5C27.4783 31.5 21.1337 30.9975 16.5557 30.1896C14.2626 29.7849 12.437 29.3078 11.1964 28.7902C10.574 28.5305 10.1274 28.2721 9.84461 28.0283C9.55851 27.7815 9.5 27.6043 9.5 27.5C9.5 27.3957 9.55851 27.2185 9.84461 26.9717C10.1274 26.7279 10.574 26.4695 11.1964 26.2098C12.437 25.6922 14.2626 25.2151 16.5557 24.8104C21.1337 24.0025 27.4783 23.5 34.5 23.5C41.5217 23.5 47.8663 24.0025 52.4443 24.8104C54.7374 25.2151 56.563 25.6922 57.8036 26.2098C58.426 26.4695 58.8726 26.7279 59.1554 26.9717C59.4415 27.2185 59.5 27.3957 59.5 27.5Z" stroke="black"/>
<path d="M59.4872 27.8876C59.4251 27.6185 59.1566 27.4507 58.8876 27.5128L54.5028 28.5247C54.2337 28.5868 54.0659 28.8552 54.128 29.1243C54.1901 29.3934 54.4586 29.5612 54.7277 29.4991L58.6252 28.5996L59.5247 32.4972C59.5868 32.7663 59.8552 32.9341 60.1243 32.872C60.3934 32.8099 60.5612 32.5414 60.4991 32.2723L59.4872 27.8876ZM34.424 68.265L59.424 28.265L58.576 27.735L33.576 67.735L34.424 68.265Z" fill="#7000FF"/>
<path d="M34 28H35.0417V27H34V28ZM37.125 28H39.2083V27H37.125V28ZM41.2917 28H43.375V27H41.2917V28ZM45.4583 28H47.5417V27H45.4583V28ZM49.625 28H51.7083V27H49.625V28ZM53.7917 28H55.875V27H53.7917V28ZM57.9583 28H59V27H57.9583V28Z" fill="#7000FF" fill-opacity="0.3"/>
<path d="M25.1055 27.6387C25.1055 27.6855 25.0859 27.7539 25.0469 27.8438C25.0117 27.9297 24.9648 28.0215 24.9062 28.1191C24.8516 28.2129 24.793 28.3066 24.7305 28.4004C24.6719 28.4941 24.6191 28.5723 24.5723 28.6348C24.416 28.8379 24.2344 29.0352 24.0273 29.2266C23.8242 29.4141 23.6113 29.582 23.3887 29.7305C23.166 29.8789 22.9395 29.998 22.709 30.0879C22.4824 30.1777 22.2656 30.2227 22.0586 30.2227C21.7422 30.2227 21.4688 30.1602 21.2383 30.0352C21.0117 29.9102 20.8242 29.7285 20.6758 29.4902C20.5312 29.248 20.4238 28.9512 20.3535 28.5996C20.2832 28.2441 20.248 27.8398 20.248 27.3867C20.248 27.1055 20.2598 26.7988 20.2832 26.4668C20.3066 26.1309 20.3398 25.7852 20.3828 25.4297C20.4258 25.0703 20.4766 24.709 20.5352 24.3457C20.5938 23.9824 20.6582 23.6328 20.7285 23.2969C20.7988 22.9609 20.873 22.6484 20.9512 22.3594C21.0293 22.0664 21.1094 21.8125 21.1914 21.5977C21.2773 21.3789 21.3613 21.207 21.4434 21.082C21.5293 20.957 21.6113 20.8945 21.6895 20.8945C21.7832 20.8945 21.8633 20.9355 21.9297 21.0176C22 21.0957 22.0566 21.1797 22.0996 21.2695C22.0566 21.6445 21.9746 22.1035 21.8535 22.6465C21.7363 23.1895 21.5957 23.8301 21.4316 24.5684C21.3848 24.7754 21.3438 24.9902 21.3086 25.2129C21.2773 25.4316 21.25 25.6523 21.2266 25.875C21.207 26.0977 21.1914 26.3184 21.1797 26.5371C21.168 26.752 21.1621 26.9551 21.1621 27.1465C21.1621 27.8301 21.25 28.3555 21.4258 28.7227C21.6055 29.0859 21.9062 29.2676 22.3281 29.2676C22.5273 29.2676 22.7246 29.2305 22.9199 29.1562C23.1152 29.0781 23.3008 28.9805 23.4766 28.8633C23.6562 28.7422 23.8262 28.6113 23.9863 28.4707C24.1465 28.3262 24.2949 28.1855 24.4316 28.0488C24.4746 28.0059 24.5254 27.9512 24.584 27.8848C24.6465 27.8184 24.7051 27.7559 24.7598 27.6973C24.8184 27.6348 24.8711 27.582 24.918 27.5391C24.9648 27.4922 24.9961 27.4688 25.0117 27.4688C25.0742 27.4688 25.1055 27.5254 25.1055 27.6387ZM31.8555 28.1895C31.9336 28.1895 31.9883 28.207 32.0195 28.2422C32.0508 28.2773 32.0664 28.334 32.0664 28.4121C32.0664 28.4707 32.0391 28.5527 31.9844 28.6582C31.9336 28.7598 31.8574 28.873 31.7559 28.998C31.6582 29.1191 31.5371 29.2441 31.3926 29.373C31.248 29.502 31.084 29.6191 30.9004 29.7246C30.7754 29.7949 30.6055 29.8613 30.3906 29.9238C30.1797 29.9863 29.9453 30.0176 29.6875 30.0176C29.3672 30.0176 29.0527 29.9941 28.7441 29.9473C28.4355 29.9004 28.1523 29.8496 27.8945 29.7949C27.6406 29.7402 27.4238 29.6895 27.2441 29.6426C27.0645 29.5957 26.9453 29.5723 26.8867 29.5723C26.75 29.5723 26.6289 29.584 26.5234 29.6074C26.418 29.627 26.3223 29.6543 26.2363 29.6895C26.1543 29.7246 26.0781 29.7656 26.0078 29.8125C25.9414 29.8594 25.877 29.9082 25.8145 29.959C25.7559 30.0059 25.6973 30.0547 25.6387 30.1055C25.584 30.1562 25.5273 30.2012 25.4688 30.2402C25.4141 30.2832 25.3574 30.3184 25.2988 30.3457C25.2402 30.373 25.1777 30.3867 25.1113 30.3867C25.0449 30.3867 24.9844 30.3711 24.9297 30.3398C24.8789 30.3125 24.8359 30.2754 24.8008 30.2285C24.7656 30.1816 24.7363 30.1289 24.7129 30.0703C24.6934 30.0117 24.6836 29.9551 24.6836 29.9004C24.7422 29.7754 24.8262 29.6543 24.9355 29.5371C25.0449 29.4199 25.1621 29.3066 25.2871 29.1973C25.416 29.084 25.543 28.9746 25.668 28.8691C25.793 28.7637 25.9023 28.6602 25.9961 28.5586C26.0859 28.4609 26.1895 28.3496 26.3066 28.2246C26.4277 28.0996 26.5488 27.9727 26.6699 27.8438C26.791 27.7109 26.9082 27.582 27.0215 27.457C27.1387 27.3281 27.2383 27.2129 27.3203 27.1113C27.4492 26.959 27.582 26.8105 27.7188 26.666C27.8594 26.5176 27.9941 26.375 28.123 26.2383C28.252 26.0977 28.3711 25.9629 28.4805 25.834C28.5938 25.7012 28.6855 25.5703 28.7559 25.4414C28.7324 25.4102 28.668 25.3945 28.5625 25.3945C28.4062 25.3945 28.2207 25.4082 28.0059 25.4355C27.791 25.459 27.5684 25.4863 27.3379 25.5176C27.1113 25.5449 26.8867 25.5723 26.6641 25.5996C26.4414 25.623 26.2422 25.6348 26.0664 25.6348C25.7734 25.6348 25.5645 25.5879 25.4395 25.4941C25.3145 25.4004 25.252 25.248 25.252 25.0371C25.252 24.9121 25.2969 24.8105 25.3867 24.7324C25.4766 24.6504 25.584 24.6094 25.709 24.6094C25.8145 24.6094 25.9121 24.6211 26.002 24.6445C26.0918 24.6641 26.1816 24.6875 26.2715 24.7148C26.3613 24.7422 26.4512 24.7676 26.541 24.791C26.6348 24.8105 26.7363 24.8203 26.8457 24.8203C26.9746 24.8203 27.1133 24.8125 27.2617 24.7969C27.4141 24.7773 27.5684 24.7559 27.7246 24.7324C27.8848 24.7051 28.0469 24.6777 28.2109 24.6504C28.375 24.623 28.5371 24.5996 28.6973 24.5801C28.7285 24.5762 28.7754 24.5684 28.8379 24.5566C28.9043 24.5449 28.9766 24.5312 29.0547 24.5156C29.1367 24.5 29.2207 24.4844 29.3066 24.4688C29.3965 24.4492 29.4805 24.4336 29.5586 24.4219C29.6406 24.4062 29.7129 24.3945 29.7754 24.3867C29.8418 24.375 29.8906 24.3691 29.9219 24.3691C30.0469 24.3691 30.123 24.4102 30.1504 24.4922C30.1816 24.5703 30.1973 24.6836 30.1973 24.832V24.8555C30.084 25.0664 29.9629 25.2559 29.834 25.4238C29.7051 25.5879 29.5703 25.748 29.4297 25.9043C29.2891 26.0605 29.1426 26.2188 28.9902 26.3789C28.8379 26.5352 28.6816 26.709 28.5215 26.9004C28.3926 27.0605 28.2461 27.2266 28.082 27.3984C27.918 27.5664 27.7578 27.7344 27.6016 27.9023C27.4492 28.0703 27.3105 28.2305 27.1855 28.3828C27.0605 28.5352 26.9727 28.6719 26.9219 28.793C26.9297 28.8008 26.9512 28.8066 26.9863 28.8105C27.0254 28.8105 27.0664 28.8105 27.1094 28.8105H27.291C27.3848 28.8105 27.4961 28.8184 27.625 28.834C27.7578 28.8496 27.8984 28.8691 28.0469 28.8926C28.1953 28.916 28.3477 28.9414 28.5039 28.9688C28.6602 28.9922 28.8105 29.0156 28.9551 29.0391C29.1035 29.0625 29.2422 29.082 29.3711 29.0977C29.5039 29.1133 29.6172 29.1211 29.7109 29.1211C29.8203 29.1211 29.9434 29.1074 30.0801 29.0801C30.2207 29.0527 30.3613 29.0137 30.502 28.9629C30.6426 28.9082 30.7793 28.8438 30.9121 28.7695C31.0488 28.6953 31.168 28.6113 31.2695 28.5176C31.3477 28.4473 31.4141 28.3906 31.4688 28.3477C31.5234 28.3047 31.5723 28.2715 31.6152 28.248C31.6582 28.2246 31.6973 28.209 31.7324 28.2012C31.7715 28.1934 31.8125 28.1895 31.8555 28.1895Z" fill="#7000FF"/>
</g>
<defs>
<clipPath id="clip0_2:2">
<rect width="100" height="100" fill="white"/>
</clipPath>
</defs>
</svg>
