<svg width="100" height="100" viewBox="0 0 100 100" fill="none" xmlns="http://www.w3.org/2000/svg">
<g clip-path="url(#clip0_2:2)">
<rect width="100" height="100" fill="white"/>
<path d="M68.9727 25.5586C68.9727 25.6094 68.9668 25.6719 68.9551 25.7461C68.9434 25.8203 68.9258 25.8965 68.9023 25.9746C68.8828 26.0488 68.8574 26.1211 68.8262 26.1914C68.7988 26.2578 68.7676 26.3105 68.7324 26.3496C68.6387 26.4629 68.4707 26.5195 68.2285 26.5195C68.2285 26.2539 68.1914 26.0332 68.1172 25.8574C68.082 25.7754 68.0176 25.707 67.9238 25.6523C67.834 25.5938 67.7324 25.5449 67.6191 25.5059C67.5059 25.4668 67.3906 25.4395 67.2734 25.4238C67.1602 25.4043 67.0625 25.3945 66.9805 25.3945C66.793 25.3945 66.6113 25.3984 66.4355 25.4062C66.2637 25.4141 66.0938 25.4316 65.9258 25.459C65.7617 25.4824 65.5938 25.5176 65.4219 25.5645C65.2539 25.6074 65.0781 25.666 64.8945 25.7402C64.7539 25.7988 64.6074 25.8691 64.4551 25.9512C64.3027 26.0293 64.1621 26.1191 64.0332 26.2207C63.9043 26.3223 63.793 26.4336 63.6992 26.5547C63.6055 26.6758 63.5469 26.8086 63.5234 26.9531C63.5156 27.0625 63.5488 27.1875 63.623 27.3281C63.6973 27.4688 63.7969 27.6055 63.9219 27.7383C64.0508 27.8711 64.1973 27.9922 64.3613 28.1016C64.5293 28.2109 64.7031 28.291 64.8828 28.3418C64.9141 28.3535 64.9863 28.3789 65.0996 28.418C65.2129 28.457 65.334 28.498 65.4629 28.541C65.5957 28.584 65.7168 28.625 65.8262 28.6641C65.9395 28.6992 66.0117 28.7207 66.043 28.7285C66.9258 28.9551 67.5801 29.2246 68.0059 29.5371C68.4355 29.8457 68.6504 30.2246 68.6504 30.6738C68.6504 30.8184 68.6172 30.9629 68.5508 31.1074C68.4883 31.248 68.4082 31.3848 68.3105 31.5176C68.2129 31.6465 68.1074 31.7656 67.9941 31.875C67.8809 31.9844 67.7754 32.0762 67.6777 32.1504C67.5645 32.2402 67.4355 32.334 67.291 32.4316C67.1465 32.5254 66.9922 32.6172 66.8281 32.707C66.6641 32.7969 66.4941 32.8809 66.3184 32.959C66.1426 33.0371 65.9648 33.1055 65.7852 33.1641C65.6094 33.2227 65.4238 33.2754 65.2285 33.3223C65.0371 33.373 64.8457 33.416 64.6543 33.4512C64.4668 33.4863 64.2852 33.5137 64.1094 33.5332C63.9375 33.5566 63.7832 33.5684 63.6465 33.5684C63.5449 33.5684 63.4121 33.5527 63.248 33.5215C63.0879 33.4941 62.9297 33.4531 62.7734 33.3984C62.6172 33.3477 62.4824 33.2852 62.3691 33.2109C62.2598 33.1406 62.2051 33.0645 62.2051 32.9824C62.2051 32.9316 62.2109 32.8691 62.2227 32.7949C62.2383 32.7207 62.2578 32.6484 62.2812 32.5781C62.3086 32.5078 62.3379 32.4492 62.3691 32.4023C62.4043 32.3516 62.4434 32.3262 62.4863 32.3262C62.5645 32.3262 62.6445 32.3398 62.7266 32.3672C62.8125 32.3906 62.9121 32.418 63.0254 32.4492C63.1426 32.4805 63.2793 32.5098 63.4355 32.5371C63.5957 32.5605 63.7891 32.5723 64.0156 32.5723C64.25 32.5723 64.4922 32.5488 64.7422 32.502C64.9961 32.4512 65.2441 32.3848 65.4863 32.3027C65.7285 32.2207 65.959 32.127 66.1777 32.0215C66.4004 31.916 66.5996 31.8066 66.7754 31.6934C66.8574 31.6387 66.9473 31.5762 67.0449 31.5059C67.1465 31.4316 67.2402 31.3516 67.3262 31.2656C67.4121 31.1797 67.4844 31.0879 67.543 30.9902C67.6016 30.8926 67.6309 30.791 67.6309 30.6855C67.6309 30.5371 67.5215 30.3945 67.3027 30.2578C67.0879 30.125 66.8672 30.0215 66.6406 29.9473C66.418 29.873 66.2188 29.8145 66.043 29.7715C65.8281 29.7168 65.5859 29.6445 65.3164 29.5547C65.0508 29.4648 64.7578 29.3574 64.4375 29.2324C63.9062 29.0293 63.457 28.7324 63.0898 28.3418C62.7227 27.9512 62.5391 27.4805 62.5391 26.9297C62.5312 26.6719 62.6094 26.4238 62.7734 26.1855C62.9414 25.9473 63.166 25.7266 63.4473 25.5234C63.7285 25.3203 64.0488 25.1406 64.4082 24.9844C64.7715 24.8242 65.1445 24.6992 65.5273 24.6094C65.6055 24.5938 65.6992 24.5762 65.8086 24.5566C65.9219 24.5371 66.0371 24.5215 66.1543 24.5098C66.2754 24.4941 66.3906 24.4824 66.5 24.4746C66.6133 24.4629 66.709 24.457 66.7871 24.457C66.8809 24.457 66.998 24.4648 67.1387 24.4805C67.2832 24.4922 67.4297 24.5098 67.5781 24.5332C67.7305 24.5566 67.873 24.5859 68.0059 24.6211C68.1426 24.6562 68.252 24.6973 68.334 24.7441C68.5332 24.8496 68.6895 24.9766 68.8027 25.125C68.916 25.2734 68.9727 25.418 68.9727 25.5586Z" fill="#7000FF"/>
<path d="M22.6133 94.3027C22.6133 94.4629 22.5254 94.6211 22.3496 94.7773C22.1816 94.9336 22.0137 95.0117 21.8457 95.0117C21.6621 95.0117 21.2031 94.7031 20.4688 94.0859C20.25 93.8984 20.0312 93.6855 19.8125 93.4473C19.5977 93.2051 19.3555 92.918 19.0859 92.5859C19.043 92.5312 18.9902 92.4668 18.9277 92.3926C18.8652 92.3184 18.791 92.2344 18.7051 92.1406C18.541 91.9492 18.3965 91.7832 18.2715 91.6426C18.1504 91.498 18.0391 91.3496 17.9375 91.1973C17.75 91.3418 17.5508 91.5117 17.3398 91.707C17.1289 91.8984 16.9297 92.0996 16.7422 92.3105C16.3633 92.7207 16.0098 93.1328 15.6816 93.5469C15.627 93.6133 15.5625 93.6934 15.4883 93.7871C15.4141 93.8809 15.3281 93.9883 15.2305 94.1094C15.1328 94.2305 15.043 94.3457 14.9609 94.4551C14.8828 94.5605 14.8105 94.6621 14.7441 94.7598C14.7246 94.791 14.6992 94.834 14.668 94.8887C14.6367 94.9434 14.6035 94.998 14.5684 95.0527C14.5332 95.1074 14.4961 95.1543 14.457 95.1934C14.4219 95.2324 14.3926 95.248 14.3691 95.2402C14.2754 95.2402 14.1895 95.1602 14.1113 95C14.0371 94.8477 14 94.6562 14 94.4258C14 94.1367 14.1465 93.8008 14.4395 93.418C14.7363 93.0391 15.1094 92.6367 15.5586 92.2109C15.7852 91.9961 15.998 91.793 16.1973 91.6016C16.4004 91.4102 16.5938 91.2266 16.7773 91.0508C17.1406 90.707 17.3223 90.4785 17.3223 90.3652C17.3223 90.2754 17.1191 89.8652 16.7129 89.1348C16.5098 88.7676 16.3398 88.4609 16.2031 88.2148C16.0664 87.9648 15.9609 87.7715 15.8867 87.6348C15.7422 87.3613 15.6699 87.1484 15.6699 86.9961C15.6699 86.8398 15.7188 86.6562 15.8164 86.4453C15.918 86.2266 16.0293 86.1172 16.1504 86.1172C16.2832 86.1172 16.3945 86.2266 16.4844 86.4453C16.5156 86.5078 16.5488 86.584 16.584 86.6738C16.623 86.7598 16.668 86.8594 16.7188 86.9727C16.7695 87.0859 16.8164 87.1934 16.8594 87.2949C16.9023 87.3965 16.9453 87.4961 16.9883 87.5938C17.0625 87.7695 17.1406 87.9395 17.2227 88.1035C17.3086 88.2637 17.3965 88.4219 17.4863 88.5781C17.5801 88.7344 17.6855 88.9043 17.8027 89.0879C17.9238 89.2715 18.0566 89.4707 18.2012 89.6855C18.4199 89.4395 18.6465 89.2012 18.8809 88.9707L19.6719 88.1797C19.9609 87.8906 20.1621 87.6836 20.2754 87.5586C20.3301 87.5 20.3945 87.4277 20.4688 87.3418C20.5469 87.252 20.627 87.1543 20.709 87.0488C20.752 86.9941 20.7891 86.9453 20.8203 86.9023C20.8516 86.8594 20.8809 86.8223 20.9082 86.791C20.9355 86.7559 20.9688 86.7129 21.0078 86.6621C21.0508 86.6074 21.0996 86.5469 21.1543 86.4805C21.3184 86.2734 21.5488 86.1699 21.8457 86.1699C21.9277 86.1699 22 86.1895 22.0625 86.2285C22.125 86.2637 22.1777 86.3125 22.2207 86.375C22.2637 86.4336 22.2949 86.5039 22.3145 86.5859C22.3379 86.668 22.3496 86.752 22.3496 86.8379C22.3496 87.0801 22.1816 87.2012 21.8457 87.2012C21.7832 87.2012 21.7148 87.2324 21.6406 87.2949C21.5664 87.3574 21.4902 87.4355 21.4121 87.5293C21.3379 87.6191 21.2637 87.7148 21.1895 87.8164C21.1191 87.918 21.0586 88.0039 21.0078 88.0742C20.8594 88.2773 20.7109 88.4629 20.5625 88.6309C20.418 88.7949 20.2754 88.9453 20.1348 89.082C20.0762 89.1367 19.9902 89.2168 19.877 89.3223C19.7637 89.4277 19.6191 89.5586 19.4434 89.7148C19.2715 89.8711 19.1191 90.0137 18.9863 90.1426C18.8574 90.2715 18.748 90.3867 18.6582 90.4883C18.8379 90.7109 19.0156 90.9297 19.1914 91.1445C19.3672 91.3555 19.543 91.5625 19.7188 91.7656C19.8945 91.9688 20.0742 92.168 20.2578 92.3633C20.4414 92.5586 20.6328 92.752 20.832 92.9434C21.0312 93.1348 21.2207 93.3008 21.4004 93.4414C21.584 93.582 21.7617 93.7012 21.9336 93.7988C22.0195 93.8496 22.1133 93.8945 22.2148 93.9336C22.2695 93.9531 22.3145 93.9688 22.3496 93.9805C22.3848 93.9922 22.4062 94 22.4141 94.0039C22.5469 94.0508 22.6133 94.1504 22.6133 94.3027Z" fill="black"/>
<path d="M96.4375 71.1621C96.4375 71.1816 96.4336 71.2148 96.4258 71.2617C96.418 71.3086 96.4102 71.3516 96.4023 71.3906C96.3711 71.5586 96.2578 71.7734 96.0625 72.0352C95.8711 72.293 95.6152 72.6172 95.2949 73.0078C95.1934 73.1328 95.0703 73.2832 94.9258 73.459C94.7852 73.6348 94.6211 73.8398 94.4336 74.0742C94.3438 74.1875 94.2578 74.2988 94.1758 74.4082C94.0938 74.5137 94.0156 74.6172 93.9414 74.7188C93.8711 74.8203 93.7988 74.9258 93.7246 75.0352C93.6504 75.1445 93.5742 75.2617 93.4961 75.3867C93.4883 75.4062 93.457 75.459 93.4023 75.5449C93.3516 75.627 93.2812 75.7461 93.1914 75.9023C93.0156 76.1992 92.8652 76.4219 92.7402 76.5703C92.7324 76.707 92.7246 76.8496 92.7168 76.998C92.7129 77.1465 92.707 77.3027 92.6992 77.4668C92.6914 77.6309 92.6836 77.7832 92.6758 77.9238C92.6719 78.0605 92.666 78.1875 92.6582 78.3047C92.6465 78.5352 92.6348 78.7695 92.623 79.0078C92.6113 79.2422 92.5938 79.5469 92.5703 79.9219C92.5391 80.5273 92.5156 80.8672 92.5 80.9414C92.4805 81.0195 92.3906 81.1055 92.2305 81.1992C92.0742 81.2969 91.9512 81.3457 91.8613 81.3457C91.748 81.3457 91.6328 81.2754 91.5156 81.1348C91.4023 80.998 91.3457 80.873 91.3457 80.7598C91.3457 80.5332 91.3809 80.1562 91.4512 79.6289C91.5254 79.1055 91.5781 78.6914 91.6094 78.3867C91.6914 77.5898 91.7324 77.0566 91.7324 76.7871C91.7324 76.6113 91.6953 76.4512 91.6211 76.3066C91.4336 76.2051 91.2422 76.0664 91.0469 75.8906C90.8555 75.7148 90.6719 75.5273 90.4961 75.3281C90.4062 75.2266 90.3066 75.1133 90.1973 74.9883C90.0918 74.8594 89.9727 74.7148 89.8398 74.5547C89.7109 74.3945 89.6113 74.2734 89.541 74.1914C89.4746 74.1055 89.4375 74.0586 89.4297 74.0508C89.3828 73.9922 89.3203 73.9219 89.2422 73.8398C89.168 73.7578 89.0801 73.6641 88.9785 73.5586C88.877 73.4492 88.7871 73.3535 88.709 73.2715C88.6348 73.1895 88.5703 73.1211 88.5156 73.0664C88.4023 72.9531 88.3457 72.8574 88.3457 72.7793C88.3457 72.7051 88.4512 72.6113 88.6621 72.498C88.877 72.3809 89.0234 72.3223 89.1016 72.3223C89.1875 72.3223 89.2793 72.3535 89.377 72.416C89.4746 72.4785 89.582 72.5723 89.6992 72.6973C89.8203 72.8184 89.9551 72.9707 90.1035 73.1543C90.2559 73.3379 90.4297 73.5527 90.625 73.7988C90.8164 74.0449 90.9902 74.2617 91.1465 74.4492C91.3027 74.6328 91.4453 74.7871 91.5742 74.9121C91.7031 75.0332 91.8203 75.125 91.9258 75.1875C92.0352 75.2461 92.1387 75.2754 92.2363 75.2754C92.2402 75.2754 92.3047 75.207 92.4297 75.0703C92.4922 75.0039 92.5391 74.9512 92.5703 74.9121C92.6055 74.873 92.627 74.8496 92.6348 74.8418C92.7988 74.6426 92.9395 74.4707 93.0566 74.3262C93.1738 74.1816 93.2715 74.0605 93.3496 73.9629C93.4277 73.8613 93.5234 73.7383 93.6367 73.5938C93.75 73.4492 93.8809 73.2793 94.0293 73.084C94.1777 72.8848 94.3145 72.7051 94.4395 72.5449C94.5645 72.3809 94.6758 72.2324 94.7734 72.0996C94.875 71.9668 94.9766 71.8301 95.0781 71.6895C95.1797 71.5449 95.2852 71.3965 95.3945 71.2441C95.4883 71.0996 95.5684 70.9941 95.6348 70.9277C95.7051 70.8574 95.7969 70.8223 95.9102 70.8223C96.0352 70.8223 96.1543 70.8516 96.2676 70.9102C96.3809 70.9648 96.4375 71.0488 96.4375 71.1621Z" fill="black"/>
<path d="M48.8457 13.8613C48.8457 14.0059 48.8027 14.0898 48.7168 14.1133C48.6777 14.1211 48.5859 14.1367 48.4414 14.1602C48.3008 14.1836 48.1074 14.2129 47.8613 14.248C47.5605 14.3027 47.2812 14.3516 47.0234 14.3945C46.7656 14.4375 46.5098 14.4805 46.2559 14.5234C46.002 14.5664 45.7422 14.6113 45.4766 14.6582C45.2109 14.7012 44.9238 14.748 44.6152 14.7988C44.3184 14.8496 44.0371 14.8965 43.7715 14.9395C43.5098 14.9785 43.2598 15.0137 43.0215 15.0449C42.5488 15.1113 42.0762 15.168 41.6035 15.2148C41.1309 15.2578 40.6582 15.2871 40.1855 15.3027C40.0957 15.3574 39.9785 15.4395 39.834 15.5488C39.6934 15.6582 39.5625 15.7422 39.4414 15.8008C39.3242 15.8555 39.1914 15.8828 39.043 15.8828C38.9961 15.8828 38.9512 15.8613 38.9082 15.8184C38.8691 15.7754 38.834 15.7246 38.8027 15.666C38.7754 15.6074 38.752 15.5488 38.7324 15.4902C38.7168 15.4277 38.709 15.377 38.709 15.3379C38.709 15.291 38.7324 15.2324 38.7793 15.1621C38.8301 15.0918 38.8984 15.0117 38.9844 14.9219C39.0703 14.832 39.1738 14.7344 39.2949 14.6289C39.416 14.5195 39.5488 14.4062 39.6934 14.2891C39.9277 14.0977 40.1387 13.9316 40.3262 13.791C40.5176 13.6465 40.6934 13.5117 40.8535 13.3867C41.0176 13.2578 41.1738 13.1309 41.3223 13.0059C41.4746 12.877 41.6309 12.7305 41.791 12.5664C41.8574 12.4961 41.9473 12.3945 42.0605 12.2617C42.1738 12.1289 42.2988 11.9805 42.4355 11.8164C42.5723 11.6523 42.7129 11.4805 42.8574 11.3008C43.002 11.1172 43.1406 10.9434 43.2734 10.7793C43.4102 10.6113 43.5332 10.4609 43.6426 10.3281C43.7559 10.1914 43.8438 10.0859 43.9062 10.0117C44.1562 9.71484 44.4395 9.43945 44.7559 9.18555C44.709 9.07227 44.5137 9.01562 44.1699 9.01562C44.0371 9.01562 43.8457 9.02734 43.5957 9.05078C43.4316 9.0625 43.2539 9.08008 43.0625 9.10352C42.875 9.12695 42.6855 9.15039 42.4941 9.17383C42.3027 9.19336 42.1152 9.21289 41.9316 9.23242C41.748 9.24805 41.582 9.25586 41.4336 9.25586C41.0664 9.25586 40.7188 9.23828 40.3906 9.20312C40.0664 9.16406 39.7617 9.08984 39.4766 8.98047C39.4062 8.95703 39.3496 8.93359 39.3066 8.91016C39.2637 8.88672 39.2285 8.86133 39.2012 8.83398C39.1738 8.80664 39.1543 8.77539 39.1426 8.74023C39.1348 8.70117 39.1309 8.65234 39.1309 8.59375C39.1309 8.56641 39.1348 8.52148 39.1426 8.45898C39.1543 8.39648 39.168 8.33203 39.1836 8.26562C39.2031 8.19922 39.2207 8.13672 39.2363 8.07812C39.2559 8.01562 39.2754 7.97266 39.2949 7.94922C39.3535 7.86719 39.4805 7.82617 39.6758 7.82617C39.9961 7.95508 40.2871 8.05273 40.5488 8.11914C40.8145 8.18164 41.0723 8.21289 41.3223 8.21289C41.4551 8.21289 41.6035 8.20898 41.7676 8.20117C41.9316 8.19336 42.0996 8.18555 42.2715 8.17773C42.4473 8.16602 42.6191 8.1543 42.7871 8.14258C42.959 8.13086 43.1172 8.12109 43.2617 8.11328C43.4883 8.09766 43.668 8.08984 43.8008 8.08984C43.9336 8.08594 44.0586 8.08203 44.1758 8.07812C44.293 8.07031 44.4238 8.05859 44.5684 8.04297C44.7129 8.02734 44.9102 7.99805 45.1602 7.95508C45.4141 7.91211 45.6289 7.88086 45.8047 7.86133C45.9844 7.83789 46.127 7.82617 46.2324 7.82617C46.3027 7.82617 46.375 7.8418 46.4492 7.87305C46.5234 7.90039 46.5898 7.9375 46.6484 7.98438C46.7109 8.03125 46.7598 8.08594 46.7949 8.14844C46.834 8.21094 46.8535 8.27539 46.8535 8.3418C46.8535 8.40039 46.8301 8.45312 46.7832 8.5C46.709 8.57422 46.6445 8.63867 46.5898 8.69336C46.5352 8.74805 46.4805 8.80078 46.4258 8.85156C46.375 8.89844 46.3223 8.94922 46.2676 9.00391C46.2168 9.05469 46.1562 9.11523 46.0859 9.18555C45.6758 9.60352 45.2695 10.0391 44.8672 10.4922C44.4648 10.9414 44.0801 11.373 43.7129 11.7871C43.5293 11.9941 43.3418 12.207 43.1504 12.4258C42.959 12.6406 42.7656 12.8555 42.5703 13.0703C42.3789 13.2852 42.1855 13.4961 41.9902 13.7031C41.7988 13.9062 41.6133 14.0996 41.4336 14.2832C41.7188 14.2715 41.9961 14.25 42.2656 14.2188C42.5352 14.1836 42.8047 14.1445 43.0742 14.1016C43.3438 14.0586 43.6172 14.0117 43.8945 13.9609C44.1758 13.9062 44.4668 13.8535 44.7676 13.8027C46.1582 13.5645 47.4336 13.4453 48.5938 13.4453C48.7617 13.5156 48.8457 13.6543 48.8457 13.8613Z" fill="black"/>
<path d="M33.8536 9.64214C33.6583 9.44688 33.3417 9.44688 33.1465 9.64214L29.9645 12.8241C29.7692 13.0194 29.7692 13.336 29.9645 13.5312C30.1597 13.7265 30.4763 13.7265 30.6716 13.5312L33.5 10.7028L36.3284 13.5312C36.5237 13.7265 36.8403 13.7265 37.0355 13.5312C37.2308 13.336 37.2308 13.0194 37.0355 12.8241L33.8536 9.64214ZM34 68.0043V9.99569H33V68.0043H34Z" fill="black"/>
<path d="M92.3622 68.3536C92.5574 68.1583 92.5574 67.8417 92.3622 67.6464L89.1802 64.4645C88.9849 64.2692 88.6683 64.2692 88.4731 64.4645C88.2778 64.6597 88.2778 64.9763 88.4731 65.1716L91.3015 68L88.4731 70.8284C88.2778 71.0237 88.2778 71.3403 88.4731 71.5355C88.6683 71.7308 88.9849 71.7308 89.1802 71.5355L92.3622 68.3536ZM34 68.5H92.0086V67.5H34V68.5Z" fill="black"/>
<path d="M4.50329 90.9427C4.47164 91.217 4.66836 91.4651 4.94269 91.4967L9.41303 92.0125C9.68735 92.0442 9.93539 91.8474 9.96704 91.5731C9.9987 91.2988 9.80197 91.0508 9.52765 91.0191L5.55402 90.5606L6.01251 86.587C6.04416 86.3126 5.84744 86.0646 5.57312 86.033C5.2988 86.0013 5.05076 86.198 5.0191 86.4723L4.50329 90.9427ZM33.6893 67.6083L4.6893 90.6083L5.3107 91.3917L34.3107 68.3917L33.6893 67.6083Z" fill="black"/>
<path d="M59.5 27.5C59.5 27.6043 59.4415 27.7815 59.1554 28.0283C58.8726 28.2721 58.426 28.5305 57.8036 28.7902C56.563 29.3078 54.7374 29.7849 52.4443 30.1896C47.8663 30.9975 41.5217 31.5 34.5 31.5C27.4783 31.5 21.1337 30.9975 16.5557 30.1896C14.2626 29.7849 12.437 29.3078 11.1964 28.7902C10.574 28.5305 10.1274 28.2721 9.84461 28.0283C9.55851 27.7815 9.5 27.6043 9.5 27.5C9.5 27.3957 9.55851 27.2185 9.84461 26.9717C10.1274 26.7279 10.574 26.4695 11.1964 26.2098C12.437 25.6922 14.2626 25.2151 16.5557 24.8104C21.1337 24.0025 27.4783 23.5 34.5 23.5C41.5217 23.5 47.8663 24.0025 52.4443 24.8104C54.7374 25.2151 56.563 25.6922 57.8036 26.2098C58.426 26.4695 58.8726 26.7279 59.1554 26.9717C59.4415 27.2185 59.5 27.3957 59.5 27.5Z" stroke="black"/>
<path d="M59.4872 27.8876C59.4251 27.6185 59.1566 27.4507 58.8876 27.5128L54.5028 28.5247C54.2337 28.5868 54.0659 28.8552 54.128 29.1243C54.1901 29.3934 54.4586 29.5612 54.7277 29.4991L58.6252 28.5996L59.5247 32.4972C59.5868 32.7663 59.8552 32.9341 60.1243 32.872C60.3934 32.8099 60.5612 32.5414 60.4991 32.2723L59.4872 27.8876ZM34.424 68.265L59.424 28.265L58.576 27.735L33.576 67.735L34.424 68.265Z" fill="#7000FF"/>
<path d="M34 28H35.0417V27H34V28ZM37.125 28H39.2083V27H37.125V28ZM41.2917 28H43.375V27H41.2917V28ZM45.4583 28H47.5417V27H45.4583V28ZM49.625 28H51.7083V27H49.625V28ZM53.7917 28H55.875V27H53.7917V28ZM57.9583 28H59V27H57.9583V28Z" fill="#7000FF" fill-opacity="0.3"/>
<circle cx="33.5" cy="27.5" r="1" fill="#7000FF"/>
</g>
<defs>
<clipPath id="clip0_2:2">
<rect width="100" height="100" fill="white"/>
</clipPath>
</defs>
</svg>
