<?xml version="1.0" encoding="utf-8"?>
<!-- Generator: Adobe Illustrator 22.0.1, SVG Export Plug-In . SVG Version: 6.00 Build 0)  -->
<svg version="1.1" id="Слой_1" xmlns="http://www.w3.org/2000/svg" xmlns:xlink="http://www.w3.org/1999/xlink" x="0px" y="0px"
	 viewBox="0 0 337.3 198.7" style="enable-background:new 0 0 337.3 198.7;" xml:space="preserve">
<style type="text/css">
	.st0{fill:none;stroke:#000000;stroke-width:0.75;stroke-miterlimit:10;}
	.st1{fill:#FFFFFF;}
	.st2{font-family:'MyriadPro-Regular';}
	.st3{font-size:12px;}
	.st4{opacity:0.5;}
	.st5{fill:none;stroke:#000000;stroke-miterlimit:10;}
	.st6{fill:none;stroke:#000000;stroke-width:0.5;stroke-miterlimit:10;}
	.st7{fill:none;stroke:#000000;stroke-width:0.25;stroke-miterlimit:10;}
</style>
<line class="st0" x1="58.5" y1="41.5" x2="164" y2="41.5"/>
<image style="overflow:visible;" width="518" height="733" xlink:href="C96120CE.jpg"  transform="matrix(0.3718 0 0 0.3718 468.9987 -48.6941)">
</image>
<line class="st0" x1="58.5" y1="93" x2="164" y2="93"/>
<rect x="82.4" y="89.7" class="st1" width="3.9" height="7.1"/>
<line class="st0" x1="58.5" y1="169.5" x2="164" y2="169.5"/>
<line class="st0" x1="184.5" y1="9.7" x2="274" y2="9.7"/>
<line class="st0" x1="184.5" y1="26.9" x2="274" y2="26.9"/>
<line class="st0" x1="184.5" y1="44.1" x2="274" y2="44.1"/>
<line class="st0" x1="184.5" y1="61.3" x2="274" y2="61.3"/>
<line class="st0" x1="184.5" y1="81" x2="274" y2="81"/>
<line class="st0" x1="184.5" y1="109.5" x2="274" y2="109.5"/>
<line class="st0" x1="184.5" y1="149.5" x2="274" y2="149.5"/>
<line class="st0" x1="184.5" y1="190.5" x2="274" y2="190.5"/>
<text transform="matrix(1 0 0 1 8.8332 41.9889)" class="st2 st3">2 ${}^2$P${}_{3/2}$</text>
<text transform="matrix(1 0 0 1 8.8332 96.8222)" class="st2 st3">2 ${}^2$P${}_{1/2}$</text>
<text transform="matrix(1 0 0 1 8.8332 172.6555)" class="st2 st3">2 ${}^2$S${}_{1/2}$</text>
<text transform="matrix(1 0 0 1 133.8621 134.7612)" class="st2 st3">D${}_1$</text>
<text transform="matrix(1 0 0 1 87.6698 109.0111)" class="st2 st3">D${}_2$</text>
<text transform="matrix(1 0 0 1 106.6123 71.2389)" class="st2 st3">$10.056$ ГГц</text>
<text transform="matrix(0 -1 1 0 123.6891 165.4876)" class="st4 st2 st3">$670.976$ нм</text>
<g>
	<g>
		<line class="st5" x1="84.2" y1="46.4" x2="84.2" y2="164.5"/>
		<g>
			<polygon points="84.2,41.5 81.3,48.5 84.2,46.8 87,48.5 			"/>
		</g>
		<g>
			<polygon points="84.2,169.5 81.3,162.5 84.2,164.2 87,162.5 			"/>
		</g>
	</g>
</g>
<g>
	<g>
		<line class="st5" x1="130.2" y1="97.9" x2="130.2" y2="164.5"/>
		<g>
			<polygon points="130.2,93 127.3,100 130.2,98.3 133,100 			"/>
		</g>
		<g>
			<polygon points="130.2,169.5 127.3,162.5 130.2,164.2 133,162.5 			"/>
		</g>
	</g>
</g>
<g>
	<g>
		<line class="st6" x1="101.8" y1="46.5" x2="101.8" y2="87.9"/>
		<g>
			<polygon points="101.8,44.1 100.4,47.5 101.8,46.7 103.3,47.5 			"/>
		</g>
		<g>
			<polygon points="101.8,90.4 100.4,86.9 101.8,87.8 103.3,86.9 			"/>
		</g>
	</g>
</g>
<rect x="65.2" y="81" class="st1" width="15" height="24.5"/>
<text transform="matrix(0 -1 1 0 77.3562 134.7132)" class="st4 st2 st3">$670.951$ нм</text>
<line class="st7" x1="164" y1="41.5" x2="184.5" y2="61.3"/>
<line class="st7" x1="184.5" y1="9.7" x2="164" y2="41.5"/>
<line class="st7" x1="184.5" y1="26.9" x2="164" y2="41.5"/>
<line class="st7" x1="184.5" y1="44.1" x2="164" y2="41.5"/>
<line class="st7" x1="184.5" y1="81" x2="164" y2="93"/>
<line class="st7" x1="184.5" y1="109.5" x2="164" y2="93"/>
<line class="st7" x1="184.5" y1="149.5" x2="164" y2="169.5"/>
<line class="st7" x1="184.5" y1="190.5" x2="164" y2="169.5"/>
<g>
	<g>
		<line class="st6" x1="205.5" y1="154" x2="205.5" y2="186"/>
		<g>
			<polygon points="205.5,151.5 204.1,155 205.5,154.2 206.9,155 			"/>
		</g>
		<g>
			<polygon points="205.5,188.4 204.1,185 205.5,185.8 206.9,185 			"/>
		</g>
	</g>
</g>
<text transform="matrix(1 0 0 1 210.4997 173.5108)" class="st2 st3">$803.5$ МГц</text>
<g>
	<g>
		<line class="st6" x1="205.5" y1="84.6" x2="205.5" y2="105.6"/>
		<g>
			<polygon points="205.5,82.2 204.1,85.7 205.5,84.8 206.9,85.7 			"/>
		</g>
		<g>
			<polygon points="205.5,108.1 204.1,104.6 205.5,105.4 206.9,104.6 			"/>
		</g>
	</g>
</g>
<text transform="matrix(1 0 0 1 210.833 98.6358)" class="st2 st3">$91.8$ МГц</text>
<text transform="matrix(1 0 0 1 210.4997 56.1358)" class="st4 st2 st3">$9.2$ МГц</text>
<text transform="matrix(1 0 0 1 210.4997 38.9692)" class="st4 st2 st3">$6.2$ МГц</text>
<text transform="matrix(1 0 0 1 210.4994 22.8025)" class="st4 st2 st3">$3.1$ МГц</text>
<g>
	<g>
		<line class="st6" x1="205.5" y1="13" x2="205.5" y2="23.5"/>
		<g>
			<polygon points="205.5,10.5 204.1,14 205.5,13.2 206.9,14 			"/>
		</g>
		<g>
			<polygon points="205.5,26 204.1,22.5 205.5,23.4 206.9,22.5 			"/>
		</g>
	</g>
</g>
<g>
	<g>
		<line class="st6" x1="205.4" y1="30.2" x2="205.6" y2="40.8"/>
		<g>
			<polygon points="205.3,27.7 204,31.3 205.4,30.4 206.8,31.2 			"/>
		</g>
		<g>
			<polygon points="205.7,43.2 204.2,39.8 205.6,40.6 207,39.7 			"/>
		</g>
	</g>
</g>
<g>
	<g>
		<line class="st6" x1="205.5" y1="47.4" x2="205.5" y2="58"/>
		<g>
			<polygon points="205.5,45 204.1,48.4 205.5,47.6 206.9,48.4 			"/>
		</g>
		<g>
			<polygon points="205.5,60.5 204.1,57 205.5,57.8 206.9,57 			"/>
		</g>
	</g>
</g>
<text transform="matrix(1 0 0 1 280.8327 30.3996)" class="st4 st2 st3">$+{1}/{2}$</text>
<text transform="matrix(1 0 0 1 280.8324 153.0105)" class="st4 st2 st3">$+{1}/{2}$</text>
<text transform="matrix(1 0 0 1 280.8327 47.6218)" class="st4 st2 st3">$-{1}/{2}$</text>
<text transform="matrix(1 0 0 1 280.8327 84.5109)" class="st4 st2 st3">$+{1}/{2}$</text>
<text transform="matrix(1 0 0 1 280.8327 13.1776)" class="st4 st2 st3">$+{3}/{2}$</text>
<text transform="matrix(1 0 0 1 280.8327 64.8442)" class="st4 st2 st3">$-{3}/{2}$</text>
<text transform="matrix(1 0 0 1 280.833 113.0107)" class="st4 st2 st3">$-{1}/{2}$</text>
<text transform="matrix(1 0 0 1 280.833 194.0108)" class="st4 st2 st3">$-{1}/{2}$</text>
</svg>
